<svg xmlns:dc="http://purl.org/dc/elements/1.1/" xmlns:cc="http://creativecommons.org/ns#" xmlns:rdf="http://www.w3.org/1999/02/22-rdf-syntax-ns#" xmlns:svg="http://www.w3.org/2000/svg" xmlns="http://www.w3.org/2000/svg" xmlns:sodipodi="http://sodipodi.sourceforge.net/DTD/sodipodi-0.dtd" xmlns:inkscape="http://www.inkscape.org/namespaces/inkscape" version="1.1" x="0px" y="0px" viewBox="0 0 100 100"><g transform="translate(0,-952.36218)"><path style="text-indent:0;text-transform:none;direction:ltr;block-progression:tb;baseline-shift:baseline;color:#000000;enable-background:accumulate;" d="m 50,958.17467 c -24.2809,0 -44,19.8115 -44,44.18753 0,24.376 19.7197,44.1875 44,44.1875 24.2803,0 44,-19.8115 44,-44.1875 0,-24.37604 -19.7192,-44.18753 -44,-44.18753 z m -0.063,14.15625 c 5.2089,0 10.2384,2.04783 13.875,5.375 3.6363,3.3267 5.8954,8.09176 5.0313,13.28125 l 0,0.0312 c -1.5419,9.31003 -7.0975,12.32313 -11,14.71873 -1.9514,1.1979 -3.4415,2.2687 -4.4687,4.0625 -1.0274,1.7939 -1.7054,4.4739 -1.3438,9.1563 a 2.000005,2.000005 0 1 1 -3.9688,0.3125 c -0.3997,-5.1776 0.3126,-8.7951 1.8438,-11.4688 1.5311,-2.6736 3.7632,-4.1916 5.8438,-5.4687 4.1606,-2.55421 7.7893,-3.90055 9.125,-11.96878 a 2.000005,2.000005 0 0 1 0,-0.0312 c 0.6182,-3.70967 -0.9199,-7.06967 -3.7813,-9.6875 -2.8615,-2.61784 -7.0074,-4.3125 -11.1563,-4.3125 -8.3147,0 -14.9687,6.44496 -14.9687,14.34375 a 2.000005,2.000005 0 1 1 -4,0 c 0,-10.1412 8.5682,-18.34375 18.9687,-18.34375 z M 50,1024.7059 c 2.1785,0 4,1.8139 4,4 0,2.186 -1.8094,4 -4,4 -2.1909,0 -4,-1.8261 -4,-4 0,-2.1741 1.8211,-4 4,-4 z" fill="#adb9c9" fill-opacity="1" fill-rule="evenodd" stroke="none" marker="none" visibility="visible" display="inline" overflow="visible"></path></g></svg>